<svg width="25" height="21" viewBox="0 0 25 21" fill="none" xmlns="http://www.w3.org/2000/svg">
<path d="M20.3021 8.31943C20.3021 15.15 10.8952 20.6788 10.4946 20.9071C10.389 20.9683 10.271 21.0003 10.1511 21.0003C10.0312 21.0003 9.91314 20.9683 9.80755 20.9071C9.40695 20.6788 0 15.15 0 8.31943C0.00167922 6.71545 0.594254 5.17768 1.64772 4.0435C2.70119 2.90932 4.12951 2.27134 5.61934 2.26953C7.49094 2.26953 9.12961 3.13603 10.1511 4.60069C11.1725 3.13603 12.8112 2.26953 14.6828 2.26953C16.1726 2.27134 17.6009 2.90932 18.6544 4.0435C19.7079 5.17768 20.3004 6.71545 20.3021 8.31943Z" fill="#48D962"/>
<circle cx="19.8229" cy="4.82291" r="4.18269" fill="#FA2E2E" stroke="#02231A" stroke-width="1.28043"/>
</svg>
